<?xml version="1.0" encoding="UTF-8"?>
<svg width="309px" height="140px" viewBox="0 0 309 140" version="1.1" xmlns="http://www.w3.org/2000/svg" xmlns:xlink="http://www.w3.org/1999/xlink">
    <!-- Generator: Sketch 48.2 (47327) - http://www.bohemiancoding.com/sketch -->
    <title>Page 1</title>
    <desc>Created with Sketch.</desc>
    <defs></defs>
    <g id="Page-1" stroke="none" stroke-width="1" fill="none" fill-rule="evenodd">
        <g transform="translate(1.000000, 1.000000)">
            <polygon id="Stroke-1" stroke="#EC1D24" stroke-width="3" points="0.5 137.288 305.549 137.288 305.549 0.5 0.5 0.5"></polygon>
            <path d="M47.4706,63.1142 C49.6306,63.0122 52.3026,63.3182 54.9546,62.9572 C57.1256,62.6612 59.1806,62.0402 60.8866,60.5502 C62.9386,58.7572 63.3946,55.6322 61.8656,53.4932 C61.0836,52.4002 59.9916,51.7122 58.7676,51.2122 C56.9496,50.4692 55.0246,50.2762 53.0976,50.2532 C48.8086,50.2012 44.5176,50.2352 40.2276,50.2382 C39.4246,50.2392 39.3696,50.2932 39.3686,51.0842 C39.3666,54.8332 39.3766,58.5822 39.3586,62.3302 C39.3556,62.9192 39.5456,63.1312 40.1446,63.1242 C42.4186,63.0982 44.6946,63.1142 47.4706,63.1142 Z M15.1636,68.5932 C15.1646,58.3152 15.1626,48.0372 15.1656,37.7592 C15.1666,35.9112 16.1186,34.7592 17.7636,34.6172 C18.5386,34.5512 19.3196,34.4962 20.0976,34.4962 C34.1496,34.4892 48.1996,34.4672 62.2506,34.5072 C65.9796,34.5172 69.7006,34.7162 73.2686,36.0342 C79.7466,38.4292 83.9266,42.9492 85.9296,49.5322 C86.5216,51.4772 86.8126,53.4812 86.7866,55.4942 C86.7196,60.7462 85.2866,65.5092 81.3826,69.2652 C80.3026,70.3042 79.0736,71.1682 77.7936,71.9482 C77.3326,72.2292 77.2906,72.4732 77.5626,72.9262 C79.6266,76.3632 81.6686,79.8152 83.7206,83.2602 C86.8146,88.4582 89.9116,93.6522 92.9986,98.8532 C93.1746,99.1482 93.3076,99.4772 93.4086,99.8062 C93.9126,101.4482 93.2096,102.5562 91.5146,102.7672 C90.8276,102.8532 90.1326,102.9012 89.4416,102.9022 C82.8496,102.9122 76.2576,102.8842 69.6656,102.9242 C67.9146,102.9342 66.7546,102.2912 65.9196,100.7032 C62.9556,95.0622 59.9006,89.4692 56.8786,83.8582 C56.3546,82.8852 55.8586,81.8952 55.2916,80.9472 C54.3126,79.3092 52.8936,78.3512 50.9336,78.3432 C47.5296,78.3272 44.1246,78.3262 40.7206,78.3202 C39.9336,78.3182 39.8936,78.3562 39.8896,79.1762 C39.8796,81.4532 39.9156,83.7312 39.8566,86.0072 C39.7376,90.5132 39.7546,95.0222 39.7286,99.5302 C39.7256,100.0262 39.6686,100.5262 39.5896,101.0172 C39.4596,101.8182 38.9456,102.3232 38.2166,102.6192 C37.6896,102.8332 37.1346,102.9112 36.5626,102.9112 C30.4916,102.9062 24.4196,102.9102 18.3486,102.9072 C16.4336,102.9062 15.2766,101.8002 15.1706,99.8832 C15.1576,99.6232 15.1646,99.3622 15.1646,99.1022 C15.1636,88.9322 15.1636,78.7622 15.1636,68.5932 Z" id="Stroke-3" stroke="#EC1D24" stroke-width="3"></path>
            <path d="M179.6942,77.5556 C182.1842,77.5556 184.6752,77.5586 187.1672,77.5536 C187.8492,77.5526 187.8812,77.5036 187.5802,76.9156 C187.1972,76.1636 186.7952,75.4216 186.4072,74.6716 C184.2702,70.5346 182.1362,66.3976 179.9982,62.2616 C179.9122,62.0936 179.8722,61.8396 179.6552,61.8236 C179.4172,61.8046 179.3842,62.0696 179.3002,62.2316 C176.8042,67.0846 174.3112,71.9386 171.8212,76.7946 C171.4662,77.4876 171.5082,77.5526 172.2862,77.5546 C174.7562,77.5576 177.2242,77.5556 179.6942,77.5556 Z M202.7262,83.4956 C202.7262,89.6536 202.7272,95.8106 202.7262,101.9676 C202.7262,102.9736 202.5712,103.0656 201.6352,102.6396 C201.0012,102.3506 200.5352,101.9096 200.2112,101.2796 C198.9132,98.7536 197.5772,96.2476 196.2922,93.7156 C195.9862,93.1136 195.6092,92.8966 194.9282,92.8976 C184.7392,92.9186 174.5482,92.9196 164.3592,92.8966 C163.6192,92.8946 163.2402,93.1476 162.9152,93.7986 C161.6952,96.2426 160.4242,98.6596 159.1502,101.0766 C158.5132,102.2826 157.5322,102.9286 156.1122,102.9236 C150.1932,102.9046 144.2742,102.9166 138.3562,102.9126 C137.5402,102.9126 136.7532,102.7886 136.1172,102.2076 C135.2632,101.4256 135.0362,100.3146 135.6132,99.2456 C136.6442,97.3406 137.7232,95.4606 138.7972,93.5766 C142.2512,87.5136 145.7102,81.4526 149.1692,75.3916 C152.0062,70.4226 154.8472,65.4566 157.6822,60.4876 C161.3432,54.0676 164.9992,47.6446 168.6582,41.2246 C169.6562,39.4736 170.6522,37.7206 171.6672,35.9796 C172.2622,34.9576 173.1752,34.4666 174.3582,34.4666 C179.3232,34.4686 184.2882,34.4756 189.2532,34.4616 C190.3842,34.4576 191.2432,34.9356 191.7832,35.8796 C192.7092,37.4966 193.5672,39.1526 194.4422,40.7976 C198.3292,48.1086 202.2102,55.4206 206.0942,62.7326 C206.3842,63.2776 206.3482,63.3596 205.7452,63.3736 C205.2472,63.3866 204.7482,63.3656 204.2502,63.3826 C203.1572,63.4216 202.7282,63.8636 202.7282,64.9596 C202.7252,71.1386 202.7262,77.3176 202.7262,83.4956 Z" id="Stroke-4" stroke="#EC1D24" stroke-width="3"></path>
            <path d="M79.9999,34.7597 C80.3579,34.5287 80.7529,34.4687 81.1649,34.4687 C86.2809,34.4687 91.3979,34.4677 96.5149,34.4697 C97.4059,34.4707 98.1419,34.8497 98.6089,35.5817 C99.8589,37.5337 101.0679,39.5137 102.2759,41.4917 C107.7069,50.3917 113.1349,59.2927 118.5539,68.1997 C118.8439,68.6767 119.0069,68.5997 119.2519,68.1857 C122.5859,62.5527 125.9259,56.9217 129.2659,51.2927 C131.6549,47.2667 134.0489,43.2427 136.4399,39.2167 C136.9599,38.3417 137.4839,37.4677 137.9909,36.5837 C138.8129,35.1537 139.9449,34.4267 141.6909,34.4477 C147.4139,34.5187 153.1389,34.4747 158.8619,34.4737 C159.3839,34.4737 159.8999,34.4837 160.4119,34.6097 C161.9639,34.9927 162.5859,35.9847 162.2769,37.5667 C162.1099,38.4227 161.6139,39.1167 161.1979,39.8477 C157.0769,47.0777 152.9449,54.3027 148.8219,61.5317 C142.4749,72.6577 136.1319,83.7857 129.7869,94.9127 C128.6819,96.8527 127.5759,98.7917 126.4759,100.7337 C125.6879,102.1237 124.6199,102.8697 122.9009,102.8157 C119.6309,102.7117 116.3539,102.7327 113.0819,102.8087 C111.5359,102.8447 110.5199,102.2007 109.7999,100.9247 C108.0959,97.9057 106.3949,94.8837 104.6929,91.8627 C102.2699,87.5557 99.8459,83.2497 97.4239,78.9427 C95.1289,74.8627 92.8399,70.7787 90.5349,66.7037 C90.3329,66.3467 90.3129,66.0397 90.4559,65.6637 C91.2459,63.5937 91.8369,61.4667 92.1909,59.2767 C92.6789,56.2617 92.4419,53.2717 91.8839,50.2947 C91.0589,45.8957 88.9519,42.1657 85.8239,39.0137 C84.2639,37.4407 82.5059,36.0957 80.4899,35.1227 C80.3219,35.0407 80.1129,35.0047 79.9999,34.7597 Z" id="Stroke-5" stroke="#EC1D24" stroke-width="3"></path>
            <path d="M265.5165,90.6504 C267.4245,90.6494 269.3315,90.6634 271.2405,90.6414 C271.7615,90.6354 272.0295,90.7404 272.0405,91.3444 C272.0515,91.9444 272.1555,92.5564 272.3145,93.1374 C272.9495,95.4534 274.5115,96.0864 276.4275,96.0794 C277.7335,96.0744 278.8865,95.6794 279.6555,94.4814 C280.7955,92.7014 280.2115,90.5084 278.3055,89.6184 C276.0535,88.5654 273.6115,88.0974 271.2605,87.3464 C269.4865,86.7794 267.6565,86.3834 265.9275,85.6754 C262.4535,84.2524 260.1745,81.7964 259.7645,77.9734 C259.3465,74.0774 260.6035,70.7884 263.8225,68.3984 C265.9805,66.7964 268.4745,66.0044 271.1005,65.6254 C275.2065,65.0334 279.3105,64.9974 283.3505,66.0744 C286.3995,66.8864 288.9825,68.4214 290.6365,71.2354 C291.6575,72.9714 292.1325,74.8674 292.3055,76.8564 C292.3485,77.3504 292.1775,77.5674 291.6575,77.5654 C287.9285,77.5544 284.2005,77.5524 280.4715,77.5674 C279.9025,77.5694 279.7685,77.2794 279.7695,76.7984 C279.7695,75.8884 279.7575,74.9904 279.3835,74.1204 C278.9225,73.0474 278.1395,72.3994 277.0195,72.2034 C275.7165,71.9744 274.4215,71.9914 273.2455,72.7294 C271.5645,73.7854 271.4845,76.3204 273.0955,77.4894 C273.7165,77.9404 274.4195,78.2284 275.1525,78.4384 C278.3185,79.3484 281.4845,80.2544 284.6515,81.1584 C286.2415,81.6114 287.7945,82.1444 289.1725,83.0924 C291.0235,84.3674 292.2185,86.1024 292.7205,88.2814 C293.3395,90.9694 293.2275,93.6464 292.1205,96.1854 C290.7955,99.2274 288.3605,101.0734 285.2835,102.1734 C283.1595,102.9334 280.9735,103.3404 278.7345,103.4264 C275.3305,103.5584 271.9205,103.5774 268.5775,102.8054 C265.6915,102.1404 263.0685,100.9724 261.2055,98.5144 C259.5785,96.3654 258.9935,93.9014 258.9315,91.2614 C258.9195,90.7544 259.1495,90.6414 259.5985,90.6444 C261.5715,90.6584 263.5435,90.6504 265.5165,90.6504" id="Fill-6" fill="#EC2126"></path>
            <path d="M237.7626,85.7275 C237.7626,83.4075 237.7466,81.0865 237.7736,78.7675 C237.7816,78.1535 237.5946,77.9235 236.9596,77.9395 C235.4876,77.9765 234.0116,77.9335 232.5376,77.9585 C231.9726,77.9685 231.7706,77.7525 231.7726,77.1975 C231.7856,73.9235 231.7876,70.6495 231.7696,67.3755 C231.7666,66.7745 232.0136,66.5905 232.5826,66.5835 C234.1636,66.5655 235.7446,66.4845 237.3256,66.4695 C237.8386,66.4635 238.0066,66.2895 237.9976,65.7855 C237.9746,64.3545 238.0036,62.9235 237.9836,61.4935 C237.9766,61.0385 238.1426,60.7825 238.5566,60.5955 C242.0156,59.0395 245.4656,57.4635 248.9216,55.9025 C249.4956,55.6425 249.5886,55.7075 249.5906,56.3625 C249.5966,59.3975 249.5926,62.4325 249.5936,65.4675 C249.5936,66.4475 249.5956,66.4485 250.5446,66.4495 C252.4746,66.4505 254.4046,66.4625 256.3336,66.4415 C256.8546,66.4355 257.0636,66.5895 257.0606,67.1405 C257.0416,70.5005 257.0396,73.8615 257.0626,77.2225 C257.0666,77.8095 256.8396,77.9645 256.2946,77.9585 C254.2786,77.9385 252.2616,77.9685 250.2456,77.9415 C249.6566,77.9325 249.4476,78.1215 249.4526,78.7215 C249.4846,82.1465 249.4736,85.5725 249.5006,88.9985 C249.5096,90.0165 249.6576,91.0255 249.9126,92.0165 C250.1526,92.9435 250.7276,93.5195 251.6476,93.7685 C252.9896,94.1315 254.3516,94.0725 255.7166,93.9895 C255.8026,93.9835 255.8866,93.9575 255.9726,93.9465 C257.0196,93.8075 257.0276,93.8145 257.0286,94.8745 C257.0286,97.1515 257.0156,99.4275 257.0356,101.7045 C257.0406,102.2595 256.8706,102.4985 256.2866,102.5895 C252.4086,103.1915 248.5216,103.3835 244.6406,102.7215 C240.7806,102.0625 238.7106,100.2965 237.9946,95.4685 C237.7556,93.8585 237.7506,92.2315 237.7606,90.6055 C237.7706,88.9795 237.7626,87.3535 237.7626,85.7275" id="Fill-7" fill="#EC2126"></path>
            <path d="M219.3944,73.6797 C219.6954,73.0447 219.9684,72.4167 220.2844,71.8117 C221.9264,68.6537 224.5894,67.0487 228.0824,66.7257 C228.6434,66.6737 229.2064,66.6447 229.7684,66.6077 C230.1784,66.5797 230.3564,66.7747 230.3554,67.1867 C230.3504,70.7207 230.3494,74.2557 230.3544,77.7897 C230.3554,78.3997 229.9624,78.3757 229.5544,78.3097 C228.3274,78.1117 227.0974,78.0797 225.8704,78.2857 C222.6204,78.8307 220.8644,80.9087 220.1064,83.9757 C219.8344,85.0727 219.7044,86.1927 219.7034,87.3247 C219.7004,92.2897 219.7024,97.2547 219.7014,102.2207 C219.7014,103.1647 219.6954,103.1717 218.7694,103.1727 C215.4734,103.1747 212.1774,103.1747 208.8814,103.1727 C207.9264,103.1727 207.9254,103.1697 207.9254,102.1847 C207.9244,93.9017 207.9194,85.6177 207.9284,77.3347 C207.9314,74.0827 207.7384,70.8387 207.5934,67.5917 C207.5714,67.0847 207.7474,66.8797 208.2524,66.8807 C211.6574,66.8887 215.0614,66.8897 218.4654,66.8787 C219.0094,66.8767 219.1674,67.1207 219.1744,67.6327 C219.1974,69.4957 219.2524,71.3597 219.3004,73.2217 C219.3044,73.3647 219.2554,73.5207 219.3944,73.6797" id="Fill-8" fill="#EC2126"></path>
        </g>
    </g>
</svg>